<svg width="40" height="40" viewBox="0 0 40 40" fill="none" xmlns="http://www.w3.org/2000/svg">
<path fill-rule="evenodd" clip-rule="evenodd" d="M11.754 0.120336C13.8872 0.023043 14.5683 0 20.0001 0C25.4317 0 26.1128 0.023043 28.246 0.120336C30.3748 0.21745 31.8286 0.555592 33.1007 1.04991C34.4159 1.56103 35.5313 2.24493 36.6432 3.35677C37.7551 4.46861 38.439 5.58408 38.9501 6.89926C39.4444 8.17139 39.7826 9.62524 39.8797 11.754C39.977 13.8872 40 14.5683 40 20.0001C40 25.4317 39.977 26.1128 39.8797 28.246C39.7826 30.3748 39.4444 31.8286 38.9501 33.1007C38.439 34.4159 37.7551 35.5313 36.6432 36.6432C35.5313 37.7551 34.4159 38.439 33.1007 38.9501C31.8286 39.4444 30.3748 39.7826 28.246 39.8797C26.1128 39.977 25.4317 40 20.0001 40C14.5683 40 13.8872 39.977 11.754 39.8797C9.62524 39.7825 8.17139 39.4444 6.8992 38.9501C5.58402 38.439 4.46873 37.7551 3.35683 36.6432C2.24499 35.5313 1.56109 34.4159 1.04997 33.1007C0.555532 31.8286 0.217509 30.3748 0.120276 28.246C0.0229834 26.1128 0 25.4317 0 20.0001C0 14.5683 0.0229834 13.8872 0.120276 11.754C0.217509 9.62524 0.555532 8.17139 1.04997 6.89926C1.56103 5.58408 2.24493 4.46861 3.35683 3.35677C4.46867 2.24493 5.58402 1.56103 6.8992 1.04991C8.17139 0.555592 9.62524 0.21745 11.754 0.120336ZM28.0817 3.72022C25.9728 3.624 25.3402 3.60358 20.0001 3.60358C14.6599 3.60358 14.0272 3.624 11.9183 3.72022C9.96832 3.80912 8.9093 4.13494 8.20455 4.40883C7.27104 4.77168 6.60476 5.20503 5.9049 5.90496C5.20509 6.60476 4.77168 7.27098 4.40883 8.20461C4.13494 8.9093 3.80918 9.96826 3.72022 11.9183C3.624 14.0272 3.60358 14.6598 3.60358 20C3.60358 25.3402 3.624 25.9728 3.72022 28.0817C3.80918 30.0317 4.13494 31.0907 4.40883 31.7954C4.77168 32.729 5.20509 33.3952 5.90496 34.095C6.60476 34.795 7.27098 35.2283 8.20461 35.5912C8.9093 35.8651 9.96826 36.1909 11.9183 36.2797C14.027 36.376 14.6594 36.3964 20 36.3964C25.3406 36.3964 25.9731 36.376 28.0817 36.2798C30.0317 36.1909 31.0907 35.8651 31.7954 35.5912C32.729 35.2283 33.3952 34.795 34.095 34.095C34.795 33.3952 35.2283 32.729 35.5912 31.7954C35.8651 31.0907 36.1909 30.0317 36.2798 28.0817C36.376 25.9728 36.3964 25.3402 36.3964 20C36.3964 14.6598 36.376 14.0272 36.2798 11.9183C36.1909 9.96832 35.8651 8.9093 35.5912 8.20455C35.2283 7.27104 34.795 6.60476 34.095 5.9049C33.3952 5.20503 32.729 4.77168 31.7954 4.40883C31.0907 4.13494 30.0317 3.80912 28.0817 3.72022ZM13.3333 20C13.3333 23.6819 16.3181 26.6666 20.0001 26.6666C23.6819 26.6666 26.6667 23.6819 26.6667 20C26.6667 16.318 23.6819 13.3332 20.0001 13.3332C16.3181 13.3332 13.3333 16.318 13.3333 20ZM9.72974 20C9.72974 14.3278 14.3279 9.72965 20.0001 9.72965C25.6721 9.72965 30.2703 14.3278 30.2703 20C30.2703 25.6721 25.6721 30.2702 20.0001 30.2702C14.3279 30.2702 9.72974 25.6721 9.72974 20ZM30.676 11.7239C32.0015 11.7239 33.0761 10.6494 33.0761 9.32387C33.0761 7.99839 32.0015 6.92383 30.676 6.92383C29.3506 6.92383 28.2761 7.99839 28.2761 9.32387C28.2761 10.6494 29.3506 11.7239 30.676 11.7239Z" fill="#525252"/>
</svg>
