<svg width="204" height="51" viewBox="0 0 204 51" fill="none" xmlns="http://www.w3.org/2000/svg">
<path d="M78.8958 22.5043H67.8958C67.5358 22.5043 67.2358 22.2043 67.2358 21.8443V7.05428C67.2358 6.69428 67.5358 6.39429 67.8958 6.39429H69.6358C69.9958 6.39429 70.2958 6.69428 70.2958 7.05428V19.0943C70.2958 19.4543 70.5958 19.7543 70.9558 19.7543H77.5958C77.9558 19.7543 78.2558 19.4543 78.2558 19.0943V7.05428C78.2558 6.69428 78.5558 6.39429 78.9158 6.39429H80.6558C81.0158 6.39429 81.3158 6.69428 81.3158 7.05428V19.0943C81.3158 19.4543 81.6158 19.7543 81.9758 19.7543C82.3358 19.7543 82.6358 20.0543 82.6358 20.4143V24.7043C82.6358 25.0643 82.3358 25.3643 81.9758 25.3643H80.2158C79.8558 25.3643 79.5558 25.0643 79.5558 24.7043V23.1643C79.5558 22.8043 79.2558 22.5043 78.8958 22.5043Z" fill="#292F69"/>
<path d="M88.436 9.79428V12.5043C88.436 12.8643 88.736 13.1643 89.096 13.1643H95.566C95.926 13.1643 96.226 13.4643 96.226 13.8243V15.2943C96.226 15.6543 95.926 15.9543 95.566 15.9543H89.096C88.736 15.9543 88.436 16.2543 88.436 16.6143V19.0743C88.436 19.4343 88.736 19.7343 89.096 19.7343H96.556C96.916 19.7343 97.216 20.0343 97.216 20.3943V21.8443C97.216 22.2043 96.916 22.5043 96.556 22.5043H86.016C85.656 22.5043 85.356 22.2043 85.356 21.8443V7.05428C85.356 6.69428 85.656 6.39429 86.016 6.39429H96.556C96.916 6.39429 97.216 6.69428 97.216 7.05428V8.46429C97.216 8.82429 96.916 9.12428 96.556 9.12428H89.096C88.736 9.12428 88.436 9.42429 88.436 9.78429V9.79428Z" fill="#292F69"/>
<path d="M114.496 7.0643V21.8543C114.496 22.2143 114.196 22.5143 113.836 22.5143H112.076C111.716 22.5143 111.416 22.2143 111.416 21.8543V16.7743C111.416 16.4143 111.116 16.1143 110.756 16.1143H104.136C103.776 16.1143 103.476 16.4143 103.476 16.7743V21.8543C103.476 22.2143 103.176 22.5143 102.816 22.5143H101.056C100.696 22.5143 100.396 22.2143 100.396 21.8543V7.0643C100.396 6.7043 100.696 6.4043 101.056 6.4043H102.816C103.176 6.4043 103.476 6.7043 103.476 7.0643V12.7143C103.476 13.0743 103.776 13.3743 104.136 13.3743H110.756C111.116 13.3743 111.416 13.0743 111.416 12.7143V7.0643C111.416 6.7043 111.716 6.4043 112.076 6.4043H113.836C114.196 6.4043 114.496 6.7043 114.496 7.0643Z" fill="#292F69"/>
<path d="M128.906 9.1343H125.626C125.266 9.1343 124.966 9.4343 124.966 9.7943V21.8543C124.966 22.2143 124.666 22.5143 124.306 22.5143H122.546C122.186 22.5143 121.886 22.2143 121.886 21.8543V9.7943C121.886 9.4343 121.586 9.1343 121.226 9.1343H117.926C117.566 9.1343 117.266 8.8343 117.266 8.4743V7.0643C117.266 6.7043 117.566 6.4043 117.926 6.4043H128.906C129.266 6.4043 129.566 6.7043 129.566 7.0643V8.4743C129.566 8.8343 129.266 9.1343 128.906 9.1343Z" fill="#292F69"/>
<path d="M138.846 6.4043C139.636 6.4043 140.386 6.5543 141.076 6.8543C141.776 7.1543 142.376 7.5643 142.896 8.0743C143.406 8.5843 143.816 9.1943 144.116 9.8943C144.416 10.5943 144.566 11.3343 144.566 12.1243C144.566 12.9143 144.436 13.6543 144.166 14.3243C143.906 15.0043 143.516 15.5943 142.996 16.0943C142.486 16.6043 141.836 16.9943 141.046 17.2843C140.256 17.5743 139.356 17.7143 138.326 17.7143H135.396C135.036 17.7143 134.736 18.0143 134.736 18.3743V21.8543C134.736 22.2143 134.436 22.5143 134.076 22.5143H132.316C131.956 22.5143 131.656 22.2143 131.656 21.8543V7.0643C131.656 6.7043 131.956 6.4043 132.316 6.4043H138.826H138.846ZM138.846 14.9443C139.296 14.9443 139.696 14.8643 140.036 14.7143C140.376 14.5643 140.646 14.3543 140.866 14.0843C141.076 13.8243 141.236 13.5243 141.336 13.1843C141.436 12.8443 141.486 12.4943 141.486 12.1243C141.486 11.7543 141.416 11.3943 141.286 11.0343C141.156 10.6743 140.966 10.3543 140.716 10.0743C140.466 9.7943 140.156 9.5643 139.796 9.3943C139.426 9.2143 139.006 9.1343 138.516 9.1343H135.416C135.056 9.1343 134.756 9.4343 134.756 9.7943V14.2843C134.756 14.6443 135.056 14.9443 135.416 14.9443H138.846Z" fill="#292F69"/>
<path d="M70.3158 33.3243V45.3643C70.3158 45.7243 70.0158 46.0243 69.6558 46.0243H67.8958C67.5358 46.0243 67.2358 45.7243 67.2358 45.3643V30.5743C67.2358 30.2143 67.5358 29.9143 67.8958 29.9143H78.4158C78.7758 29.9143 79.0758 30.2143 79.0758 30.5743V32.0043C79.0758 32.3643 78.7758 32.6643 78.4158 32.6643H70.9758C70.6158 32.6643 70.3158 32.9643 70.3158 33.3243Z" fill="#292F69"/>
<path d="M87.6359 32.6643C87.2759 32.6643 86.9759 32.9643 86.9759 33.3243V40.0143C86.9759 40.9543 86.8359 41.8143 86.5459 42.5843C86.2559 43.3543 85.8559 44.0243 85.3359 44.5743C84.8159 45.1243 84.1859 45.5543 83.4559 45.8543C82.9259 46.0743 82.3559 46.2143 81.7459 46.2743C81.3559 46.3143 81.0159 46.0043 81.0159 45.6143V44.1243C81.0159 43.7943 81.2659 43.5243 81.5959 43.4743C81.9659 43.4243 82.2759 43.3043 82.5259 43.1443C82.8959 42.8943 83.1859 42.5843 83.3959 42.2243C83.6059 41.8543 83.7359 41.4743 83.8059 41.0843C83.8759 40.6843 83.9059 40.3343 83.9059 40.0243V30.5843C83.9059 30.2243 84.2059 29.9243 84.5659 29.9243H95.5859C95.9459 29.9243 96.2459 30.2243 96.2459 30.5843V45.3743C96.2459 45.7343 95.9459 46.0343 95.5859 46.0343H93.8459C93.4859 46.0343 93.1859 45.7343 93.1859 45.3743V33.3343C93.1859 32.9743 92.8859 32.6743 92.5259 32.6743H87.6459L87.6359 32.6643Z" fill="#292F69"/>
<path d="M99.2059 46.0243C98.7159 46.0243 98.3959 45.5043 98.6159 45.0643L106.356 29.9443H106.666L114.406 45.0643C114.626 45.5043 114.316 46.0243 113.816 46.0243H111.956C111.706 46.0243 111.476 45.8843 111.366 45.6543L110.476 43.8543C110.366 43.6343 110.136 43.4843 109.886 43.4843H103.116C102.866 43.4843 102.636 43.6243 102.526 43.8543L101.656 45.6443C101.546 45.8743 101.316 46.0143 101.066 46.0143H99.2159L99.2059 46.0243ZM105.246 40.8143H107.756C108.236 40.8143 108.556 40.3143 108.356 39.8743L107.106 37.2143C106.866 36.7143 106.156 36.7043 105.916 37.2143L104.656 39.8743C104.446 40.3143 104.766 40.8143 105.256 40.8143H105.246Z" fill="#292F69"/>
<path d="M122.576 37.1143L125.886 30.3043C125.996 30.0743 126.226 29.9343 126.476 29.9343H128.366C128.856 29.9343 129.176 30.4443 128.956 30.8843L124.456 40.0343C124.016 40.9743 123.506 41.8343 122.916 42.6043C122.326 43.3843 121.776 44.0443 121.256 44.5943C120.736 45.1443 120.106 45.5743 119.376 45.8743C118.846 46.0943 118.276 46.2343 117.666 46.2943C117.276 46.3343 116.936 46.0243 116.936 45.6343V44.1443C116.936 43.8143 117.186 43.5443 117.516 43.4943C117.886 43.4443 118.216 43.3243 118.476 43.1643C118.876 42.9143 119.256 42.6043 119.616 42.2443C119.826 42.0643 120.016 41.8843 120.176 41.7043C120.366 41.4843 120.386 41.1743 120.236 40.9243L114.116 30.9443C113.846 30.5043 114.166 29.9443 114.676 29.9443H116.706C116.936 29.9443 117.156 30.0643 117.276 30.2643L121.406 37.1743C121.676 37.6243 122.336 37.5943 122.566 37.1243L122.576 37.1143Z" fill="#292F69"/>
<path d="M141.106 45.8143L135.696 39.9443C135.286 39.5043 134.546 39.7943 134.546 40.3943V45.3743C134.546 45.7343 134.246 46.0343 133.886 46.0343H132.126C131.766 46.0343 131.466 45.7343 131.466 45.3743V30.5843C131.466 30.2243 131.766 29.9243 132.126 29.9243H133.886C134.246 29.9243 134.546 30.2243 134.546 30.5843V36.1943C134.546 36.8243 135.336 37.0943 135.726 36.6043L140.756 30.1943C140.886 30.0343 141.076 29.9443 141.276 29.9443H143.366C143.916 29.9443 144.226 30.5843 143.886 31.0143L138.476 37.8143C138.276 38.0743 138.286 38.4343 138.506 38.6743L144.336 44.9143C144.726 45.3343 144.436 46.0243 143.856 46.0243H141.596C141.416 46.0243 141.236 45.9443 141.106 45.8143Z" fill="#292F69"/>
<path d="M155.156 46.3343C154.016 46.3343 152.936 46.1143 151.926 45.6743C150.916 45.2343 150.026 44.6343 149.276 43.8843C148.516 43.1243 147.926 42.2443 147.486 41.2343C147.046 40.2243 146.826 39.1343 146.826 37.9743C146.826 36.8143 147.046 35.7443 147.486 34.7243C147.926 33.7043 148.526 32.8143 149.276 32.0643C150.036 31.3043 150.916 30.7143 151.926 30.2743C152.936 29.8343 154.016 29.6143 155.156 29.6143C156.296 29.6143 157.396 29.8343 158.416 30.2743C159.426 30.7143 160.316 31.3143 161.066 32.0643C161.826 32.8243 162.416 33.7043 162.856 34.7243C163.296 35.7443 163.516 36.8243 163.516 37.9743C163.516 39.1243 163.296 40.2143 162.856 41.2343C162.416 42.2443 161.816 43.1343 161.066 43.8843C160.316 44.6343 159.426 45.2343 158.416 45.6743C157.406 46.1143 156.316 46.3343 155.156 46.3343ZM155.166 32.4943C154.436 32.4943 153.746 32.6443 153.116 32.9443C152.476 33.2443 151.926 33.6443 151.446 34.1443C150.776 34.8543 150.296 35.7243 150.016 36.7643C150.016 36.7943 150.006 36.8243 149.996 36.8543C149.786 38.0043 149.896 39.0743 150.306 40.0643C150.586 40.7243 150.956 41.3043 151.436 41.8143C151.916 42.3243 152.466 42.7243 153.106 43.0243C153.746 43.3243 154.426 43.4743 155.156 43.4743C155.886 43.4743 156.576 43.3243 157.206 43.0243C157.846 42.7243 158.396 42.3243 158.876 41.8143C159.356 41.3043 159.726 40.7243 160.006 40.0643C160.426 39.0743 160.526 38.0043 160.316 36.8543C160.316 36.8243 160.306 36.7943 160.296 36.7643C160.016 35.7243 159.546 34.8443 158.866 34.1443C158.386 33.6443 157.836 33.2443 157.196 32.9443C156.556 32.6443 155.876 32.4943 155.146 32.4943H155.166Z" fill="#292F69"/>
<path d="M182.466 29.9443V45.3643C182.466 45.7243 182.166 46.0243 181.806 46.0243H180.046C179.686 46.0243 179.386 45.7243 179.386 45.3643V39.7043C179.386 39.0843 178.616 38.8043 178.216 39.2843L174.856 43.3243C174.596 43.6443 174.106 43.6443 173.836 43.3243L170.496 39.2943C170.106 38.8143 169.326 39.0943 169.326 39.7143V45.3643C169.326 45.7243 169.026 46.0243 168.666 46.0243H166.906C166.546 46.0243 166.246 45.7243 166.246 45.3643V29.9443H166.906C166.906 29.9443 166.996 29.9643 167.026 30.0043L173.836 38.6443C174.096 38.9543 174.576 38.9543 174.836 38.6443L181.666 30.0043C181.666 30.0043 181.736 29.9443 181.786 29.9443H182.446H182.466Z" fill="#292F69"/>
<path d="M186.006 45.3643V30.5743C186.006 30.2143 186.306 29.9143 186.666 29.9143H188.426C188.786 29.9143 189.086 30.2143 189.086 30.5743V35.5443C189.086 35.9043 189.386 36.2043 189.746 36.2043H193.446C194.136 36.2043 194.786 36.2843 195.396 36.4443C196.006 36.6043 196.536 36.8743 196.996 37.2443C197.446 37.6143 197.806 38.1143 198.076 38.7143C198.336 39.3243 198.476 40.0643 198.476 40.9443V41.2543C198.476 42.1343 198.346 42.8843 198.076 43.4843C197.816 44.0943 197.456 44.5843 196.996 44.9543C196.546 45.3243 196.006 45.5943 195.396 45.7543C194.786 45.9143 194.136 45.9943 193.446 45.9943H186.666C186.306 45.9943 186.006 45.6943 186.006 45.3343V45.3643ZM189.086 39.5943V42.6343C189.086 42.9943 189.386 43.2943 189.746 43.2943H193.596C193.666 43.2943 193.736 43.2943 193.796 43.2643C194.196 43.1443 194.536 42.9243 194.806 42.5943C194.986 42.3843 195.126 42.1443 195.226 41.8943C195.326 41.6343 195.376 41.3743 195.376 41.1143C195.376 40.8543 195.326 40.5943 195.226 40.3343C195.126 40.0743 194.986 39.8443 194.806 39.6343C194.536 39.3043 194.196 39.0843 193.786 38.9643C193.726 38.9443 193.656 38.9343 193.586 38.9343H189.736C189.376 38.9343 189.076 39.2343 189.076 39.5943H189.086ZM202.886 46.0243H201.126C200.766 46.0243 200.466 45.7243 200.466 45.3643V30.6043C200.466 30.2443 200.766 29.9443 201.126 29.9443H202.886C203.246 29.9443 203.546 30.2443 203.546 30.6043V45.3643C203.546 45.7243 203.246 46.0243 202.886 46.0243Z" fill="#292F69"/>
<path d="M28.6874 39.1661C28.6874 37.7652 28.5149 36.3988 28.1974 35.0946C27.2382 35.3982 26.2307 35.5707 25.1748 35.5707C19.5436 35.5707 14.9682 30.9885 14.9682 25.3642C14.9682 24.3083 15.1339 23.2939 15.4306 22.3346C14.1263 22.0241 12.7737 21.8516 11.3728 21.8516C10.2825 21.8516 9.21281 21.9689 8.17767 22.1621C7.98444 23.2042 7.87402 24.2738 7.87402 25.3642C7.87402 34.9013 15.6307 42.6649 25.1748 42.6649C26.2721 42.6649 27.3417 42.5545 28.3838 42.3613C28.577 41.3262 28.6874 40.2634 28.6874 39.1661Z" fill="#1D70B7"/>
<path d="M22.1798 25.6681C21.2344 24.909 20.2131 24.2327 19.1158 23.6875C18.964 24.2189 18.8743 24.7848 18.8743 25.3644C18.8743 28.8356 21.6968 31.6581 25.168 31.6581C25.7477 31.6581 26.3135 31.5753 26.8449 31.4235C26.2997 30.3401 25.6303 29.3256 24.8781 28.3802C23.1667 29.2704 21.2827 27.3519 22.1729 25.6681H22.1798Z" fill="#292F69"/>
<path d="M31.7033 9.34706C29.6882 8.52584 27.4868 8.06348 25.1749 8.06348C18.2602 8.06348 12.277 12.1489 9.5166 18.0285C10.1308 17.9733 10.7519 17.9388 11.373 17.9388C16.1761 17.9388 20.6134 19.5467 24.1743 22.245C26.1549 18.8566 29.2741 13.5084 31.7033 9.34706Z" fill="#292F69"/>
<path d="M28.3149 26.3924C30.9994 29.9464 32.6005 34.37 32.6005 39.1662C32.6005 39.7942 32.5728 40.4083 32.5176 41.0225C38.3973 38.2552 42.4758 32.279 42.4758 25.3642C42.4758 23.0662 42.0203 20.8785 41.206 18.8704L28.3218 26.3924H28.3149Z" fill="#292F69"/>
<path d="M47.3408 15.2888L44.6563 16.8553C45.8019 19.4639 46.4367 22.3416 46.4367 25.3643C46.4367 37.089 36.8996 46.6262 25.1748 46.6262C13.45 46.6262 3.91286 37.089 3.91286 25.3643C3.91286 13.6395 13.45 4.10231 25.1748 4.10231C28.2112 4.10231 31.1028 4.74411 33.7182 5.89657C34.6706 4.26794 35.2778 3.22589 35.2778 3.22589C35.4228 2.97745 35.5746 2.74282 35.7402 2.52199C32.5244 1.03137 28.9496 0.189453 25.1748 0.189453C11.2969 0.189453 0 11.4795 0 25.3643C0 39.249 11.2969 50.5391 25.1748 50.5391C39.0527 50.5391 50.3496 39.2421 50.3496 25.3643C50.3496 21.6032 49.5146 18.0354 48.0309 14.8264C47.8031 14.9852 47.5823 15.1439 47.3408 15.2888Z" fill="#1D70B7"/>
</svg>
