<svg width="538" height="324" viewBox="0 0 538 324" fill="none" xmlns="http://www.w3.org/2000/svg">
<path d="M12.7613 253.098H11.1671V241.348L1.07034 253.098H0.716064V237.775H2.25124V249.703L12.4071 237.775H12.7613V253.098Z" fill="#1D70B7"/>
<path d="M30.7407 240.64L29.5303 241.555C28.8512 240.699 28.0541 240.02 27.1389 239.577C26.1942 239.134 25.1904 238.898 24.0686 238.898C22.8581 238.898 21.7068 239.193 20.6735 239.783C19.6402 240.374 18.8135 241.141 18.2526 242.145C17.6917 243.149 17.3964 244.241 17.3964 245.481C17.3964 247.341 18.0459 248.906 19.3154 250.146C20.5849 251.386 22.2086 252.006 24.1571 252.006C26.3123 252.006 28.0837 251.179 29.5303 249.496L30.7407 250.412C29.9731 251.386 29.0284 252.124 27.877 252.655C26.7256 253.187 25.4561 253.452 24.039 253.452C21.3525 253.452 19.2564 252.567 17.6917 250.766C16.3927 249.26 15.7432 247.43 15.7432 245.304C15.7432 243.06 16.5403 241.171 18.105 239.636C19.6697 238.101 21.6477 237.333 24.0095 237.333C25.4266 237.333 26.7256 237.628 27.877 238.189C29.0284 238.75 29.9731 239.547 30.7112 240.551L30.7407 240.64Z" fill="#1D70B7"/>
<path d="M48.0705 240.64L46.86 241.555C46.181 240.699 45.3839 240.02 44.4687 239.577C43.524 239.134 42.5202 238.898 41.3983 238.898C40.1879 238.898 39.0365 239.193 38.0032 239.783C36.9699 240.374 36.1433 241.141 35.5824 242.145C35.0214 243.149 34.7262 244.241 34.7262 245.481C34.7262 247.341 35.3757 248.906 36.6452 250.146C37.9147 251.386 39.5384 252.006 41.4869 252.006C43.6421 252.006 45.4134 251.179 46.86 249.496L48.0705 250.412C47.3029 251.386 46.3582 252.124 45.2068 252.655C44.0554 253.187 42.7859 253.452 41.3688 253.452C38.6823 253.452 36.5861 252.567 35.0214 250.766C33.7224 249.26 33.0729 247.43 33.0729 245.304C33.0729 243.06 33.8701 241.171 35.4348 239.636C36.9995 238.101 38.9775 237.333 41.3393 237.333C42.7564 237.333 44.0554 237.628 45.2068 238.189C46.3582 238.75 47.3029 239.547 48.0409 240.551L48.0705 240.64Z" fill="#1D70B7"/>
<path d="M63.511 253.098H61.8577L56.7798 241.259L51.6134 253.098H49.9601L56.6322 237.775H56.957L63.511 253.098Z" fill="#1D70B7"/>
<path d="M66.109 237.805H74.8773V239.31H67.6442V244.093H74.8182V245.599H67.6442V251.621H74.8182V253.127H66.109V237.805Z" fill="#1D70B7"/>
<path d="M77.4749 255.4H75.9692V251.68H77.2092L83.2318 237.805H83.7632L90.1106 251.68H91.2915V255.4H89.7859V253.098H77.4749V255.4ZM78.951 251.68H88.3097L83.527 240.964L78.9806 251.68H78.951Z" fill="#1D70B7"/>
<path d="M100.768 237.422C103.101 237.422 105.02 238.189 106.584 239.754C108.149 241.289 108.917 243.208 108.917 245.481C108.917 247.755 108.149 249.615 106.584 251.179C105.02 252.744 103.13 253.512 100.887 253.512C98.6429 253.512 96.6944 252.744 95.1297 251.179C93.565 249.615 92.7974 247.755 92.7974 245.54C92.7974 244.064 93.1516 242.706 93.8602 241.466C94.5687 240.197 95.543 239.223 96.7829 238.514C98.0229 237.805 99.3514 237.451 100.768 237.451V237.422ZM100.828 238.898C99.7057 238.898 98.6133 239.193 97.6096 239.783C96.6058 240.374 95.8087 241.171 95.2182 242.175C94.6573 243.179 94.3621 244.3 94.3621 245.511C94.3621 247.341 94.982 248.876 96.2515 250.116C97.521 251.356 99.0267 252.006 100.798 252.006C101.979 252.006 103.071 251.711 104.105 251.15C105.108 250.559 105.905 249.792 106.466 248.788C107.027 247.784 107.323 246.692 107.323 245.452C107.323 244.212 107.027 243.149 106.466 242.145C105.905 241.141 105.108 240.374 104.075 239.783C103.042 239.193 101.949 238.898 100.798 238.898H100.828Z" fill="#1D70B7"/>
<path d="M112.046 237.805H115.057C116.268 237.805 117.213 237.952 117.862 238.248C118.512 238.543 119.043 238.986 119.397 239.576C119.752 240.167 119.958 240.846 119.958 241.554C119.958 242.233 119.781 242.853 119.456 243.414C119.132 243.975 118.63 244.418 118.01 244.772C118.807 245.038 119.427 245.363 119.84 245.717C120.283 246.071 120.608 246.514 120.844 247.045C121.08 247.547 121.198 248.108 121.198 248.728C121.198 249.968 120.755 251.001 119.84 251.858C118.954 252.714 117.744 253.127 116.209 253.127H112.017V237.805H112.046ZM113.552 239.31V244.211H114.438C115.5 244.211 116.268 244.123 116.77 243.916C117.272 243.709 117.655 243.414 117.951 242.971C118.246 242.558 118.394 242.086 118.394 241.554C118.394 240.846 118.157 240.314 117.655 239.901C117.154 239.517 116.386 239.31 115.323 239.31H113.552ZM113.552 245.746V251.621H115.441C116.563 251.621 117.39 251.503 117.892 251.297C118.423 251.09 118.836 250.736 119.161 250.263C119.486 249.791 119.634 249.289 119.634 248.758C119.634 248.079 119.397 247.488 118.954 246.986C118.512 246.484 117.892 246.13 117.124 245.953C116.593 245.835 115.707 245.776 114.408 245.776H113.552V245.746Z" fill="#1D70B7"/>
<path d="M130.498 237.805L137.642 253.127H135.989L133.568 248.079H126.984L124.593 253.127H122.881L130.114 237.805H130.498ZM130.291 241.052L127.663 246.603H132.889L130.291 241.052Z" fill="#1D70B7"/>
<path d="M139.975 237.805H141.51V244.211H149.304V237.805H150.839V253.127H149.304V245.746H141.51V253.127H139.975V237.805Z" fill="#1D70B7"/>
<path d="M166.604 253.098H165.01V241.348L154.913 253.098H154.559V237.775H156.094V249.703L166.25 237.775H166.604V253.098Z" fill="#1D70B7"/>
<path d="M170.324 237.805H179.092V239.31H171.859V244.093H179.033V245.599H171.859V251.621H179.033V253.127H170.324V237.805Z" fill="#1D70B7"/>
<path d="M199.699 253.098H198.105V241.348L188.008 253.098H187.654V237.775H189.189V249.703L199.345 237.775H199.699V253.098Z" fill="#1D70B7"/>
<path d="M221.723 253.098H220.07L214.992 241.259L209.825 253.098H208.172L214.844 237.775H215.169L221.723 253.098Z" fill="#1D70B7"/>
<path d="M224.292 237.805H233.06V239.31H225.827V244.093H233.001V245.599H225.827V251.621H233.001V253.127H224.292V237.805Z" fill="#1D70B7"/>
<path d="M241.975 244.388V237.775H243.511V253.098H241.975V245.894H240.883C239.348 245.894 238.256 245.835 237.547 245.717C236.839 245.599 236.219 245.333 235.658 244.89C235.097 244.477 234.713 243.946 234.506 243.355C234.3 242.735 234.211 241.909 234.211 240.846V237.805H235.717V240.934C235.717 242.204 235.982 243.119 236.484 243.621C236.986 244.123 237.872 244.388 239.053 244.388H240.145H240.617H241.975Z" fill="#1D70B7"/>
<path d="M247.231 237.805H255.999V239.31H248.766V244.093H255.94V245.599H248.766V251.621H255.94V253.127H247.231V237.805Z" fill="#1D70B7"/>
<path d="M258.626 237.805H260.161V244.211H267.955V237.805H269.49V253.127H267.955V245.746H260.161V253.127H258.626V237.805Z" fill="#1D70B7"/>
<path d="M285.227 253.098H283.632V241.348L273.536 253.098H273.181V237.775H274.716V249.703L284.872 237.775H285.227V253.098Z" fill="#1D70B7"/>
<path d="M288.976 237.805H297.744V239.31H290.511V244.093H297.685V245.599H290.511V251.621H297.685V253.127H288.976V237.805Z" fill="#1D70B7"/>
<path d="M344.124 253.099H311.649C310.587 253.099 309.701 252.213 309.701 251.15V207.486C309.701 206.423 310.587 205.537 311.649 205.537H316.786C317.849 205.537 318.735 206.423 318.735 207.486V243.031C318.735 244.094 319.621 244.98 320.683 244.98H340.286C341.349 244.98 342.235 244.094 342.235 243.031V207.486C342.235 206.423 343.121 205.537 344.183 205.537H349.32C350.383 205.537 351.269 206.423 351.269 207.486V243.031C351.269 244.094 352.155 244.98 353.217 244.98C354.28 244.98 355.166 245.865 355.166 246.928V259.594C355.166 260.656 354.28 261.542 353.217 261.542H348.021C346.959 261.542 346.073 260.656 346.073 259.594V255.047C346.073 253.984 345.187 253.099 344.124 253.099Z" fill="#525252"/>
<path d="M372.289 215.575V223.576C372.289 224.639 373.175 225.524 374.237 225.524H393.339C394.401 225.524 395.287 226.41 395.287 227.473V231.813C395.287 232.875 394.401 233.761 393.339 233.761H374.237C373.175 233.761 372.289 234.647 372.289 235.71V242.972C372.289 244.035 373.175 244.921 374.237 244.921H396.261C397.324 244.921 398.21 245.806 398.21 246.869V251.15C398.21 252.213 397.324 253.099 396.261 253.099H365.144C364.082 253.099 363.196 252.213 363.196 251.15V207.486C363.196 206.423 364.082 205.537 365.144 205.537H396.261C397.324 205.537 398.21 206.423 398.21 207.486V211.649C398.21 212.711 397.324 213.597 396.261 213.597H374.237C373.175 213.597 372.289 214.483 372.289 215.546V215.575Z" fill="#525252"/>
<path d="M449.225 207.515V251.179C449.225 252.242 448.339 253.128 447.277 253.128H442.081C441.018 253.128 440.132 252.242 440.132 251.179V236.182C440.132 235.119 439.246 234.233 438.184 234.233H418.64C417.577 234.233 416.691 235.119 416.691 236.182V251.179C416.691 252.242 415.805 253.128 414.743 253.128H409.547C408.484 253.128 407.598 252.242 407.598 251.179V207.515C407.598 206.453 408.484 205.567 409.547 205.567H414.743C415.805 205.567 416.691 206.453 416.691 207.515V224.196C416.691 225.259 417.577 226.144 418.64 226.144H438.184C439.246 226.144 440.132 225.259 440.132 224.196V207.515C440.132 206.453 441.018 205.567 442.081 205.567H447.277C448.339 205.567 449.225 206.453 449.225 207.515Z" fill="#525252"/>
<path d="M491.767 213.627H482.084C481.021 213.627 480.136 214.512 480.136 215.575V251.179C480.136 252.242 479.25 253.128 478.187 253.128H472.991C471.928 253.128 471.043 252.242 471.043 251.179V215.575C471.043 214.512 470.157 213.627 469.094 213.627H459.352C458.289 213.627 457.403 212.741 457.403 211.678V207.515C457.403 206.453 458.289 205.567 459.352 205.567H491.767C492.83 205.567 493.716 206.453 493.716 207.515V211.678C493.716 212.741 492.83 213.627 491.767 213.627Z" fill="#525252"/>
<path d="M521.113 205.567C523.445 205.567 525.66 206.01 527.697 206.895C529.763 207.781 531.535 208.992 533.07 210.497C534.576 212.003 535.786 213.804 536.672 215.87C537.557 217.937 538 220.122 538 222.454C538 224.786 537.616 226.971 536.819 228.949C536.052 230.956 534.9 232.698 533.365 234.174C531.859 235.68 529.94 236.831 527.608 237.688C525.276 238.544 522.619 238.957 519.578 238.957H510.928C509.865 238.957 508.979 239.843 508.979 240.906V251.179C508.979 252.242 508.094 253.128 507.031 253.128H501.835C500.772 253.128 499.886 252.242 499.886 251.179V207.515C499.886 206.453 500.772 205.567 501.835 205.567H521.054H521.113ZM521.113 230.779C522.442 230.779 523.623 230.543 524.626 230.1C525.63 229.657 526.427 229.037 527.077 228.24C527.697 227.473 528.169 226.587 528.464 225.583C528.76 224.58 528.907 223.546 528.907 222.454C528.907 221.362 528.7 220.299 528.317 219.236C527.933 218.173 527.372 217.228 526.634 216.402C525.896 215.575 524.981 214.896 523.918 214.394C522.825 213.863 521.586 213.627 520.139 213.627H510.987C509.924 213.627 509.038 214.512 509.038 215.575V228.831C509.038 229.894 509.924 230.779 510.987 230.779H521.113Z" fill="#525252"/>
<path d="M140.3 285.042V320.587C140.3 321.65 139.414 322.536 138.351 322.536H133.155C132.092 322.536 131.207 321.65 131.207 320.587V276.923C131.207 275.86 132.092 274.974 133.155 274.974H164.213C165.276 274.974 166.162 275.86 166.162 276.923V281.145C166.162 282.208 165.276 283.093 164.213 283.093H142.248C141.185 283.093 140.3 283.979 140.3 285.042Z" fill="#525252"/>
<path d="M191.433 283.094C190.37 283.094 189.485 283.979 189.485 285.042V304.793C189.485 307.568 189.071 310.107 188.215 312.38C187.359 314.653 186.178 316.631 184.643 318.255C183.108 319.879 181.248 321.148 179.093 322.034C177.528 322.684 175.845 323.097 174.044 323.274C172.893 323.392 171.889 322.477 171.889 321.325V316.927C171.889 315.952 172.627 315.155 173.601 315.008C174.694 314.86 175.609 314.506 176.347 314.033C177.439 313.295 178.295 312.38 178.915 311.317C179.535 310.225 179.919 309.103 180.126 307.952C180.332 306.771 180.421 305.738 180.421 304.822V276.953C180.421 275.89 181.307 275.004 182.37 275.004H214.904C215.966 275.004 216.852 275.89 216.852 276.953V320.617C216.852 321.68 215.966 322.565 214.904 322.565H209.767C208.704 322.565 207.818 321.68 207.818 320.617V285.072C207.818 284.009 206.932 283.123 205.87 283.123H191.463L191.433 283.094Z" fill="#525252"/>
<path d="M225.591 322.536C224.144 322.536 223.2 321.001 223.849 319.702L246.7 275.063H247.615L270.465 319.702C271.115 321.001 270.2 322.536 268.724 322.536H263.232C262.494 322.536 261.815 322.123 261.49 321.444L258.863 316.129C258.538 315.48 257.859 315.037 257.121 315.037H237.134C236.396 315.037 235.717 315.45 235.392 316.129L232.824 321.414C232.499 322.093 231.82 322.506 231.082 322.506H225.62L225.591 322.536ZM243.423 307.155H250.833C252.25 307.155 253.195 305.678 252.604 304.379L248.914 296.526C248.205 295.05 246.109 295.021 245.401 296.526L241.681 304.379C241.061 305.678 242.005 307.155 243.452 307.155H243.423Z" fill="#525252"/>
<path d="M294.585 296.231L304.357 276.126C304.682 275.447 305.361 275.034 306.099 275.034H311.679C313.126 275.034 314.07 276.539 313.421 277.838L300.136 304.852C298.837 307.627 297.331 310.166 295.589 312.439C293.847 314.742 292.224 316.69 290.688 318.314C289.153 319.938 287.293 321.207 285.138 322.093C283.573 322.742 281.891 323.156 280.09 323.333C278.938 323.451 277.935 322.536 277.935 321.384V316.986C277.935 316.011 278.673 315.214 279.647 315.067C280.739 314.919 281.713 314.565 282.481 314.092C283.662 313.354 284.784 312.439 285.847 311.376C286.467 310.845 287.028 310.313 287.5 309.782C288.061 309.133 288.12 308.217 287.677 307.479L269.609 278.016C268.812 276.717 269.757 275.063 271.262 275.063H277.256C277.935 275.063 278.584 275.418 278.938 276.008L291.131 296.408C291.928 297.737 293.877 297.648 294.556 296.261L294.585 296.231Z" fill="#525252"/>
<path d="M349.291 321.916L333.319 304.586C332.109 303.287 329.924 304.143 329.924 305.915V320.617C329.924 321.68 329.038 322.565 327.976 322.565H322.78C321.717 322.565 320.831 321.68 320.831 320.617V276.953C320.831 275.89 321.717 275.004 322.78 275.004H327.976C329.038 275.004 329.924 275.89 329.924 276.953V293.515C329.924 295.375 332.256 296.172 333.408 294.726L348.258 275.801C348.642 275.329 349.202 275.063 349.793 275.063H355.963C357.587 275.063 358.502 276.953 357.498 278.222L341.527 298.298C340.936 299.065 340.966 300.128 341.615 300.837L358.827 319.259C359.978 320.499 359.122 322.536 357.41 322.536H350.738C350.206 322.536 349.675 322.3 349.291 321.916Z" fill="#525252"/>
<path d="M390.77 323.451C387.405 323.451 384.216 322.801 381.234 321.502C378.253 320.203 375.625 318.432 373.411 316.218C371.167 313.974 369.425 311.376 368.126 308.394C366.827 305.413 366.178 302.195 366.178 298.77C366.178 295.345 366.827 292.186 368.126 289.175C369.425 286.164 371.197 283.536 373.411 281.322C375.655 279.078 378.253 277.336 381.234 276.037C384.216 274.738 387.405 274.089 390.77 274.089C394.136 274.089 397.383 274.738 400.395 276.037C403.377 277.336 406.004 279.108 408.218 281.322C410.462 283.566 412.204 286.164 413.503 289.175C414.802 292.186 415.451 295.375 415.451 298.77C415.451 302.165 414.802 305.383 413.503 308.394C412.204 311.376 410.432 314.004 408.218 316.218C406.004 318.432 403.377 320.203 400.395 321.502C397.413 322.801 394.195 323.451 390.77 323.451ZM390.8 282.592C388.645 282.592 386.608 283.034 384.748 283.92C382.858 284.806 381.235 285.987 379.817 287.463C377.839 289.559 376.422 292.127 375.596 295.198C375.596 295.286 375.566 295.375 375.537 295.463C374.917 298.859 375.241 302.017 376.452 304.94C377.278 306.889 378.371 308.601 379.788 310.107C381.205 311.612 382.829 312.793 384.718 313.679C386.608 314.565 388.615 315.007 390.77 315.007C392.925 315.007 394.963 314.565 396.822 313.679C398.712 312.793 400.336 311.612 401.753 310.107C403.17 308.601 404.262 306.889 405.089 304.94C406.329 302.017 406.624 298.859 406.004 295.463C406.004 295.375 405.974 295.286 405.945 295.198C405.118 292.127 403.731 289.529 401.723 287.463C400.306 285.987 398.682 284.806 396.793 283.92C394.904 283.034 392.896 282.592 390.741 282.592H390.8Z" fill="#525252"/>
<path d="M471.397 275.063V320.587C471.397 321.65 470.511 322.536 469.448 322.536H464.252C463.19 322.536 462.304 321.65 462.304 320.587V303.878C462.304 302.047 460.031 301.22 458.85 302.638L448.93 314.565C448.163 315.509 446.716 315.509 445.919 314.565L436.058 302.667C434.907 301.25 432.604 302.077 432.604 303.907V320.587C432.604 321.65 431.718 322.536 430.656 322.536H425.46C424.397 322.536 423.511 321.65 423.511 320.587V275.063H425.46C425.46 275.063 425.725 275.122 425.814 275.241L445.919 300.748C446.686 301.663 448.104 301.663 448.871 300.748L469.035 275.241C469.035 275.241 469.242 275.063 469.389 275.063H471.338H471.397Z" fill="#525252"/>
<path d="M481.848 320.587V276.923C481.848 275.86 482.734 274.974 483.797 274.974H488.993C490.055 274.974 490.941 275.86 490.941 276.923V291.596C490.941 292.659 491.827 293.544 492.89 293.544H503.813C505.85 293.544 507.769 293.78 509.57 294.253C511.371 294.725 512.935 295.522 514.293 296.615C515.622 297.707 516.685 299.183 517.482 300.954C518.249 302.755 518.663 304.94 518.663 307.538V308.453C518.663 311.051 518.279 313.265 517.482 315.037C516.714 316.838 515.652 318.284 514.293 319.377C512.965 320.469 511.371 321.266 509.57 321.738C507.769 322.211 505.85 322.447 503.813 322.447H483.797C482.734 322.447 481.848 321.561 481.848 320.498V320.587ZM490.941 303.552V312.527C490.941 313.59 491.827 314.476 492.89 314.476H504.256C504.462 314.476 504.669 314.476 504.846 314.387C506.027 314.033 507.031 313.384 507.828 312.409C508.359 311.789 508.773 311.081 509.068 310.343C509.363 309.575 509.511 308.807 509.511 308.04C509.511 307.272 509.363 306.505 509.068 305.737C508.773 304.97 508.359 304.291 507.828 303.671C507.031 302.696 506.027 302.047 504.817 301.693C504.64 301.633 504.433 301.604 504.226 301.604H492.86C491.797 301.604 490.911 302.49 490.911 303.552H490.941ZM531.682 322.536H526.486C525.424 322.536 524.538 321.65 524.538 320.587V277.012C524.538 275.949 525.424 275.063 526.486 275.063H531.682C532.745 275.063 533.631 275.949 533.631 277.012V320.587C533.631 321.65 532.745 322.536 531.682 322.536Z" fill="#525252"/>
<path d="M203.596 166.744C203.596 160.751 202.858 154.905 201.5 149.325C197.397 150.624 193.086 151.362 188.569 151.362C164.479 151.362 144.905 131.759 144.905 107.698C144.905 103.181 145.614 98.8415 146.883 94.7379C141.303 93.4093 135.517 92.6713 129.524 92.6713C124.859 92.6713 120.283 93.1732 115.855 93.9998C115.028 98.4577 114.556 103.034 114.556 107.698C114.556 148.499 147.739 181.712 188.569 181.712C193.263 181.712 197.839 181.239 202.297 180.413C203.124 175.984 203.596 171.438 203.596 166.744Z" fill="#1D70B7"/>
<path d="M175.756 108.998C171.712 105.751 167.342 102.858 162.648 100.525C161.999 102.799 161.615 105.22 161.615 107.699C161.615 122.549 173.69 134.624 188.54 134.624C191.02 134.624 193.44 134.27 195.714 133.62C193.381 128.985 190.518 124.645 187.3 120.601C179.978 124.409 171.918 116.202 175.727 108.998H175.756Z" fill="#525252"/>
<path d="M216.497 39.1768C207.877 35.6636 198.459 33.6855 188.569 33.6855C158.987 33.6855 133.391 51.163 121.582 76.3163C124.209 76.0801 126.866 75.9325 129.524 75.9325C150.071 75.9325 169.054 82.8113 184.288 94.3547C192.761 79.859 206.105 56.979 216.497 39.1768Z" fill="#525252"/>
<path d="M202.002 112.097C213.486 127.302 220.335 146.226 220.335 166.744C220.335 169.431 220.217 172.058 219.981 174.686C245.134 162.847 262.582 137.28 262.582 107.699C262.582 97.8675 260.634 88.5088 257.15 79.9177L202.031 112.097H202.002Z" fill="#525252"/>
<path d="M283.396 64.5957L271.912 71.2973C276.812 82.4569 279.529 94.7679 279.529 107.699C279.529 157.858 238.728 198.658 188.569 198.658C138.41 198.658 97.6097 157.858 97.6097 107.699C97.6097 57.5397 138.41 16.7394 188.569 16.7394C201.559 16.7394 213.929 19.485 225.118 24.4153C229.192 17.4479 231.79 12.99 231.79 12.99C232.41 11.9272 233.06 10.9234 233.768 9.97867C220.011 3.60177 204.718 0 188.569 0C129.199 0 80.8703 48.2991 80.8703 107.699C80.8703 167.098 129.199 215.398 188.569 215.398C247.939 215.398 296.268 167.069 296.268 107.699C296.268 91.6089 292.696 76.3457 286.348 62.6176C285.374 63.2967 284.429 63.9757 283.396 64.5957Z" fill="#1D70B7"/>
</svg>
