<svg width="41" height="40" viewBox="0 0 41 40" fill="none" xmlns="http://www.w3.org/2000/svg">
<path fill-rule="evenodd" clip-rule="evenodd" d="M12.4206 0.120336C14.5539 0.023043 15.235 0 20.6667 0C26.0983 0 26.7794 0.023043 28.9126 0.120336C31.0414 0.21745 32.4952 0.555592 33.7674 1.04991C35.0825 1.56103 36.1979 2.24493 37.3099 3.35677C38.4217 4.46861 39.1056 5.58408 39.6167 6.89926C40.111 8.17139 40.4492 9.62524 40.5463 11.754C40.6436 13.8872 40.6666 14.5683 40.6666 20.0001C40.6666 25.4317 40.6436 26.1128 40.5463 28.246C40.4492 30.3748 40.111 31.8286 39.6167 33.1007C39.1056 34.4159 38.4217 35.5313 37.3099 36.6432C36.1979 37.7551 35.0825 38.439 33.7674 38.9501C32.4952 39.4444 31.0414 39.7826 28.9126 39.8797C26.7794 39.977 26.0983 40 20.6667 40C15.235 40 14.5539 39.977 12.4206 39.8797C10.2919 39.7825 8.83801 39.4444 7.56583 38.9501C6.25065 38.439 5.13536 37.7551 4.02346 36.6432C2.91162 35.5313 2.22771 34.4159 1.7166 33.1007C1.22216 31.8286 0.884135 30.3748 0.786902 28.246C0.689609 26.1128 0.666626 25.4317 0.666626 20.0001C0.666626 14.5683 0.689609 13.8872 0.786902 11.754C0.884135 9.62524 1.22216 8.17139 1.7166 6.89926C2.22765 5.58408 2.91156 4.46861 4.02346 3.35677C5.1353 2.24493 6.25065 1.56103 7.56583 1.04991C8.83801 0.555592 10.2919 0.21745 12.4206 0.120336ZM28.7483 3.72022C26.6394 3.624 26.0068 3.60358 20.6667 3.60358C15.3265 3.60358 14.6938 3.624 12.5849 3.72022C10.6349 3.80912 9.57592 4.13494 8.87118 4.40883C7.93767 4.77168 7.27139 5.20503 6.57152 5.90496C5.87172 6.60476 5.43831 7.27098 5.07546 8.20461C4.80156 8.9093 4.4758 9.96826 4.38685 11.9183C4.29063 14.0272 4.2702 14.6598 4.2702 20C4.2702 25.3402 4.29063 25.9728 4.38685 28.0817C4.4758 30.0317 4.80156 31.0907 5.07546 31.7954C5.43831 32.729 5.87172 33.3952 6.57158 34.095C7.27139 34.795 7.93761 35.2283 8.87124 35.5912C9.57592 35.8651 10.6349 36.1909 12.5849 36.2797C14.6936 36.376 15.326 36.3964 20.6666 36.3964C26.0072 36.3964 26.6398 36.376 28.7483 36.2798C30.6983 36.1909 31.7573 35.8651 32.4621 35.5912C33.3956 35.2283 34.0619 34.795 34.7617 34.095C35.4616 33.3952 35.8949 32.729 36.2578 31.7954C36.5317 31.0907 36.8575 30.0317 36.9464 28.0817C37.0426 25.9728 37.063 25.3402 37.063 20C37.063 14.6598 37.0426 14.0272 36.9464 11.9183C36.8575 9.96832 36.5317 8.9093 36.2578 8.20455C35.8949 7.27104 35.4616 6.60476 34.7617 5.9049C34.0619 5.20503 33.3956 4.77168 32.462 4.40883C31.7573 4.13494 30.6984 3.80912 28.7483 3.72022ZM30.4179 16.9582C30.7131 15.1689 30.9515 13.7239 30.9901 13.2025C31.1578 11.4142 29.1344 12.1499 29.1344 12.1499C29.1344 12.1499 24.7486 13.8326 23.4543 14.3571L10.3475 19.4015C8.04352 20.2428 9.3924 21.0295 9.3924 21.0295C9.3924 21.0295 11.3611 21.6596 13.0492 22.1331C14.7373 22.6066 15.6378 22.0821 15.6378 22.0821L23.5674 17.0887C26.3782 15.304 25.7038 16.7755 25.0293 17.4056C23.5674 18.7714 21.1464 20.9275 19.1231 22.6612C18.2264 23.3969 18.6747 24.027 19.0685 24.3439C20.2231 25.2557 22.9558 26.9241 24.1651 27.6624C24.4871 27.8589 24.7011 27.9896 24.7486 28.0225C25.0293 28.2338 26.6043 29.1807 27.5594 28.9695C28.5146 28.7582 28.6276 27.549 28.6276 27.549L30.035 19.2995C30.1656 18.4877 30.2966 17.6939 30.4179 16.9582Z" fill="#525252"/>
</svg>
