<svg width="41" height="40" viewBox="0 0 41 40" fill="none" xmlns="http://www.w3.org/2000/svg">
<path fill-rule="evenodd" clip-rule="evenodd" d="M12.0874 0.120336C14.2206 0.023043 14.9017 0 20.3334 0C25.765 0 26.4461 0.023043 28.5794 0.120336C30.7081 0.21745 32.162 0.555592 33.4341 1.04991C34.7493 1.56103 35.8646 2.24493 36.9766 3.35677C38.0884 4.46861 38.7723 5.58408 39.2835 6.89926C39.7778 8.17139 40.1159 9.62524 40.213 11.754C40.3103 13.8872 40.3334 14.5683 40.3334 20.0001C40.3334 25.4317 40.3103 26.1128 40.213 28.246C40.1159 30.3748 39.7778 31.8286 39.2835 33.1007C38.7723 34.4159 38.0884 35.5313 36.9766 36.6432C35.8646 37.7551 34.7493 38.439 33.4341 38.9501C32.162 39.4444 30.7081 39.7826 28.5794 39.8797C26.4461 39.977 25.765 40 20.3334 40C14.9017 40 14.2206 39.977 12.0874 39.8797C9.95861 39.7825 8.50476 39.4444 7.23257 38.9501C5.9174 38.439 4.8021 37.7551 3.69021 36.6432C2.57837 35.5313 1.89446 34.4159 1.38335 33.1007C0.888906 31.8286 0.550883 30.3748 0.45365 28.246C0.356357 26.1128 0.333374 25.4317 0.333374 20.0001C0.333374 14.5683 0.356357 13.8872 0.45365 11.754C0.550883 9.62524 0.888906 8.17139 1.38335 6.89926C1.8944 5.58408 2.57831 4.46861 3.69021 3.35677C4.80205 2.24493 5.9174 1.56103 7.23257 1.04991C8.50476 0.555592 9.95861 0.21745 12.0874 0.120336ZM28.4151 3.72022C26.3062 3.624 25.6736 3.60358 20.3334 3.60358C14.9932 3.60358 14.3606 3.624 12.2517 3.72022C10.3017 3.80912 9.24267 4.13494 8.53793 4.40883C7.60442 4.77168 6.93814 5.20503 6.23827 5.90496C5.53847 6.60476 5.10506 7.27098 4.74221 8.20461C4.46831 8.9093 4.14255 9.96826 4.0536 11.9183C3.95737 14.0272 3.93695 14.6598 3.93695 20C3.93695 25.3402 3.95737 25.9728 4.0536 28.0817C4.14255 30.0317 4.46831 31.0907 4.74221 31.7954C5.10506 32.729 5.53847 33.3952 6.23833 34.095C6.93814 34.795 7.60436 35.2283 8.53799 35.5912C9.24267 35.8651 10.3016 36.1909 12.2517 36.2797C14.3604 36.376 14.9928 36.3964 20.3334 36.3964C25.674 36.3964 26.3065 36.376 28.4151 36.2798C30.365 36.1909 31.4241 35.8651 32.1288 35.5912C33.0623 35.2283 33.7286 34.795 34.4284 34.095C35.1283 33.3952 35.5617 32.729 35.9245 31.7954C36.1984 31.0907 36.5243 30.0317 36.6132 28.0817C36.7094 25.9728 36.7298 25.3402 36.7298 20C36.7298 14.6598 36.7094 14.0272 36.6132 11.9183C36.5243 9.96832 36.1984 8.9093 35.9245 8.20455C35.5617 7.27104 35.1283 6.60476 34.4284 5.9049C33.7286 5.20503 33.0624 4.77168 32.1288 4.40883C31.4241 4.13494 30.3651 3.80912 28.4151 3.72022ZM8.33337 13C8.52825 21.7447 13.2053 27 21.4051 27H21.87V21.997C24.8831 22.2773 27.1615 24.3373 28.0759 27H32.3334C31.1641 23.02 28.0909 20.8198 26.1721 19.979C28.0909 18.9419 30.7892 16.4194 31.4338 13H27.5661C26.7267 15.7748 24.2385 18.2973 21.87 18.5355V13H18.0023V22.6977C15.6038 22.1371 12.5757 19.4184 12.4408 13H8.33337Z" fill="#525252"/>
</svg>
